<?xml version="1.0" standalone="no"?>
<!DOCTYPE svg PUBLIC "-//W3C//DTD SVG 20010904//EN"
 "http://www.w3.org/TR/2001/REC-SVG-20010904/DTD/svg10.dtd">
<svg version="1.0" xmlns="http://www.w3.org/2000/svg"
 width="339.000000pt" height="339.000000pt" viewBox="0 0 339.000000 339.000000"
 preserveAspectRatio="xMidYMid meet">
<metadata>
Created by potrace 1.11, written by Peter Selinger 2001-2013
</metadata>
<g transform="translate(0.000000,339.000000) scale(0.100000,-0.100000)"
fill="#000000" stroke="none">
<path d="M1555 3337 c-66 -22 -149 -71 -193 -114 -50 -49 -78 -94 -167 -268
-48 -93 -111 -215 -140 -270 -29 -55 -110 -212 -181 -350 -70 -137 -155 -303
-189 -367 -33 -65 -91 -177 -129 -250 -37 -73 -115 -225 -173 -338 -58 -113
-134 -259 -168 -325 -201 -387 -214 -422 -209 -555 7 -175 123 -351 281 -425
115 -55 72 -53 1425 -51 689 2 1266 6 1281 10 145 36 279 142 342 272 49 100
63 239 34 347 -16 62 -1212 2447 -1256 2505 -71 94 -188 170 -295 192 -80 16
-192 10 -263 -13z"/>
</g>
</svg>
